<?xml version="1.0" encoding="UTF-8"?>
<svg width="97px" height="78px" viewBox="0 0 97 78" version="1.1" xmlns="http://www.w3.org/2000/svg" xmlns:xlink="http://www.w3.org/1999/xlink">
    <!-- Generator: Sketch 43.1 (39012) - http://www.bohemiancoding.com/sketch -->
    <title>mf-diamond-rbg (1)</title>
    <desc>Created with Sketch.</desc>
    <defs>
        <polygon id="path-1" points="0 77.94 96.96 77.94 96.96 0.675 0 0.675"></polygon>
    </defs>
    <g id="Page-1" stroke="none" stroke-width="1" fill="none" fill-rule="evenodd">
        <g id="mf-diamond-rbg-(1)">
            <mask id="mask-2" fill="white">
                <use xlink:href="#path-1"></use>
            </mask>
            <g id="Clip-2"></g>
            <path d="M13.936,7.341 L23.594,11.609 L5.85,17.224 L13.936,7.341 Z M91.146,17.224 L73.402,11.609 L83.06,7.341 L91.146,17.224 Z M70.276,32.663 L90.325,24.034 L53.129,68.616 L70.276,32.663 Z M5.791,20.389 L26.331,13.889 L26.331,29.229 L5.791,20.389 Z M26.72,32.663 L43.867,68.616 L6.672,24.034 L26.72,32.663 Z M27.274,9.955 L18.736,6.183 L31.047,4.197 L27.274,9.955 Z M30.047,11.196 L34.251,4.78 L43.765,17.391 L30.047,11.196 Z M66.949,11.196 L53.231,17.391 L62.745,4.78 L66.949,11.196 Z M69.722,9.955 L65.95,4.197 L78.26,6.183 L69.722,9.955 Z M70.665,13.889 L91.205,20.389 L70.665,29.229 L70.665,13.889 Z M51.99,21.244 L67.665,14.165 L67.665,29.081 L51.99,21.244 Z M49.998,23.602 L67.177,32.191 L49.998,68.212 L49.998,23.602 Z M46.998,23.602 L46.998,68.212 L29.819,32.191 L46.998,23.602 Z M29.331,14.165 L45.006,21.244 L29.331,29.081 L29.331,14.165 Z M96.845,20.795 C96.872,20.736 96.902,20.681 96.921,20.619 C96.951,20.526 96.962,20.428 96.972,20.329 C96.979,20.266 96.993,20.206 96.992,20.143 C96.992,20.128 96.997,20.114 96.996,20.1 C96.991,19.999 96.961,19.905 96.936,19.81 C96.924,19.762 96.924,19.713 96.907,19.666 C96.851,19.512 96.771,19.371 96.67,19.244 C96.665,19.238 96.664,19.231 96.659,19.225 L84.659,4.558 C84.428,4.275 84.098,4.085 83.737,4.027 L63.07,0.694 C62.522,0.605 61.968,0.828 61.634,1.271 L48.498,18.684 L35.362,1.271 C35.028,0.828 34.474,0.605 33.926,0.694 L13.259,4.027 C12.899,4.085 12.569,4.275 12.337,4.558 L0.337,19.225 C0.333,19.231 0.331,19.238 0.327,19.244 C0.226,19.371 0.146,19.512 0.09,19.666 C0.073,19.713 0.072,19.763 0.06,19.811 C0.036,19.906 0.005,19.999 0,20.1 C-0.001,20.114 0.005,20.128 0.005,20.142 C0.003,20.206 0.018,20.267 0.024,20.33 C0.035,20.429 0.046,20.526 0.075,20.619 C0.094,20.681 0.124,20.737 0.151,20.796 C0.194,20.887 0.24,20.973 0.3,21.055 C0.319,21.08 0.326,21.111 0.346,21.136 L47.346,77.469 C47.382,77.512 47.429,77.539 47.469,77.576 C47.524,77.63 47.578,77.684 47.642,77.729 C47.706,77.774 47.775,77.806 47.845,77.84 C47.894,77.864 47.935,77.899 47.987,77.918 C48.008,77.926 48.03,77.924 48.051,77.931 C48.125,77.954 48.2,77.963 48.276,77.975 C48.351,77.986 48.424,78 48.498,78 C48.573,78 48.646,77.986 48.72,77.975 C48.797,77.963 48.872,77.954 48.945,77.931 C48.966,77.924 48.988,77.926 49.009,77.918 C49.061,77.899 49.103,77.864 49.152,77.84 C49.221,77.806 49.29,77.774 49.354,77.729 C49.418,77.684 49.472,77.63 49.528,77.576 C49.567,77.539 49.614,77.512 49.65,77.469 L96.65,21.136 C96.671,21.111 96.678,21.08 96.697,21.055 C96.756,20.973 96.803,20.887 96.845,20.795 L96.845,20.795 Z" id="Fill-1" fill="#131A23" mask="url(#mask-2)"></path>
        </g>
    </g>
</svg>