<svg width="70" height="70" viewBox="0 0 70 70" fill="none" xmlns="http://www.w3.org/2000/svg">
<path d="M35 2.80078C17.2321 2.80078 2.8 17.2329 2.8 35.0008C2.8 52.7687 17.2321 67.2008 35 67.2008C52.7679 67.2008 67.2 52.7687 67.2 35.0008C67.2 17.3087 52.885 2.94511 35.2215 2.82266C35.1483 2.8095 35.0743 2.80218 35 2.80078ZM35 5.60078C51.2549 5.60078 64.4 18.7459 64.4 35.0008C64.4 51.2557 51.2549 64.4008 35 64.4008C18.7451 64.4008 5.6 51.2557 5.6 35.0008C5.6 18.7459 18.7451 5.60078 35 5.60078ZM16.7398 40.5844C16.4847 40.5928 16.2368 40.6708 16.0228 40.8099C15.8088 40.949 15.6369 41.144 15.5257 41.3737C15.4145 41.6034 15.3682 41.8592 15.3919 42.1133C15.4155 42.3675 15.5081 42.6103 15.6598 42.8156C15.6598 42.8156 22.9833 53.2008 35 53.2008C47.0167 53.2008 54.3402 42.8156 54.3402 42.8156C54.5563 42.5132 54.6435 42.1373 54.5824 41.7707C54.5214 41.404 54.3172 41.0767 54.0148 40.8605C53.7124 40.6444 53.3366 40.5573 52.9699 40.6183C52.6033 40.6793 52.2759 40.8835 52.0598 41.1859C52.0598 41.1859 45.3833 50.4008 35 50.4008C24.6167 50.4008 17.9402 41.1859 17.9402 41.1859C17.8066 40.9931 17.6266 40.837 17.4168 40.7319C17.2071 40.6268 16.9743 40.576 16.7398 40.5844Z" fill="white"/>
<path d="M25.2 21V31.5" stroke="white" stroke-width="2.8" stroke-linecap="round"/>
<path d="M43.4 21V31.5" stroke="white" stroke-width="2.8" stroke-linecap="round"/>
</svg>
